<svg width="24" height="24" fill="none" xmlns="http://www.w3.org/2000/svg"><defs><clipPath id="clip11342_1459"><path id="Icon-cookie" fill="#fff" fill-opacity="0" d="M0 0h24v24H0z"/></clipPath></defs><g clip-path="url('#clip11342_1459')"><path id="Vector" d="M21.942 11.993a4.997 4.997 0 0 1-4.94-4.995 4.997 4.997 0 0 1-4.995-4.94 5.155 5.155 0 0 0-3.114.502l-2.7 1.375a5.165 5.165 0 0 0-2.257 2.258L2.564 8.884a5.18 5.18 0 0 0-.5 3.162l.472 2.98a5.177 5.177 0 0 0 1.451 2.85l2.14 2.138a5.156 5.156 0 0 0 2.84 1.448l2.996.474a5.152 5.152 0 0 0 3.146-.498l2.7-1.375a5.167 5.167 0 0 0 2.258-2.258l1.371-2.691a5.18 5.18 0 0 0 .504-3.121ZM8.875 16.375a1.25 1.25 0 1 1 0-2.5 1.25 1.25 0 0 1 0 2.5Zm1.25-6.25a1.25 1.25 0 1 1 0-2.5 1.25 1.25 0 0 1 0 2.5Zm6.25 5a1.25 1.25 0 1 1 0-2.5 1.25 1.25 0 0 1 0 2.5Z" fill="#FFF" fill-opacity="1" fill-rule="nonzero"/></g></svg>