<svg width="24" height="24" fill="none" xmlns="http://www.w3.org/2000/svg"><defs><clipPath id="clip11342_1658"><path id="Icon-instagram" fill="#fff" fill-opacity="0" d="M0 0h24v24H0z"/></clipPath></defs><path id="Icon-instagram" fill="#FFF" fill-opacity="0" d="M0 0h24v24H0z"/><g clip-path="url('#clip11342_1658')"><path id="Vector" d="M12 2c2.717 0 3.056.01 4.122.06 1.065.05 1.79.217 2.428.465.66.254 1.216.598 1.772 1.153.509.5.902 1.104 1.153 1.772.247.637.415 1.363.465 2.428.047 1.066.06 1.405.06 4.122 0 2.717-.01 3.056-.06 4.122-.05 1.065-.218 1.79-.465 2.428a4.884 4.884 0 0 1-1.153 1.772c-.5.508-1.105.902-1.772 1.153-.637.247-1.363.415-2.428.465-1.066.047-1.405.06-4.122.06-2.717 0-3.056-.01-4.122-.06-1.065-.05-1.79-.218-2.428-.465a4.89 4.89 0 0 1-1.772-1.153 4.903 4.903 0 0 1-1.153-1.772c-.248-.637-.415-1.363-.465-2.428C2.013 15.056 2 14.717 2 12c0-2.717.01-3.056.06-4.122.05-1.066.217-1.79.465-2.428a4.88 4.88 0 0 1 1.153-1.772A4.897 4.897 0 0 1 5.45 2.525c.638-.248 1.362-.415 2.428-.465C8.944 2.013 9.283 2 12 2Zm0 5a5 5 0 1 0 0 10.001A5 5 0 0 0 12 7Zm6.5-.25a1.25 1.25 0 1 0-2.5 0 1.25 1.25 0 0 0 2.5 0ZM12 9a3 3 0 1 1 0 6 3 3 0 0 1 0-6Z" fill="#F9512E" fill-opacity="1" fill-rule="nonzero"/></g></svg>