<svg width="24" height="24" fill="none" xmlns="http://www.w3.org/2000/svg"><defs><clipPath id="clip11342_1659"><path id="Icon-twitter" fill="#fff" fill-opacity="0" d="M0 0h24v24H0z"/></clipPath></defs><path id="Icon-twitter" fill="#FFF" fill-opacity="0" d="M0 0h24v24H0z"/><g clip-path="url('#clip11342_1659')"><path id="Vector" d="M22.162 5.656a8.39 8.39 0 0 1-2.402.658A4.197 4.197 0 0 0 21.6 4c-.82.488-1.719.83-2.656 1.015a4.181 4.181 0 0 0-7.126 3.814 11.871 11.871 0 0 1-8.62-4.37 4.167 4.167 0 0 0-.566 2.103c0 1.45.738 2.731 1.86 3.481a4.17 4.17 0 0 1-1.894-.523v.052a4.185 4.185 0 0 0 3.355 4.1 4.213 4.213 0 0 1-1.89.073A4.184 4.184 0 0 0 7.97 16.65a8.39 8.39 0 0 1-6.191 1.732 11.829 11.829 0 0 0 6.41 1.88c7.693 0 11.9-6.373 11.9-11.9 0-.18-.005-.362-.013-.54a8.503 8.503 0 0 0 2.087-2.165l-.001-.001Z" fill="#F9512E" fill-opacity="1" fill-rule="nonzero"/></g></svg>